<?xml version="1.0"?>
<svg width="128" height="128" xmlns="http://www.w3.org/2000/svg" xmlns:svg="http://www.w3.org/2000/svg" xmlns:xlink="http://www.w3.org/1999/xlink">
 <desc>Source: openclipart.org/detail/209545</desc>
 <defs>
  <symbol height="128" id="svg_8" width="128" xmlns="http://www.w3.org/2000/svg" xmlns:svg="http://www.w3.org/2000/svg" xmlns:xlink="http://www.w3.org/1999/xlink">
   <!-- Created with SVG-edit - https://github.com/SVG-Edit/svgedit-->
   <defs>
    <symbol id="svg_2" viewBox="36.682 214.534 425.524 308.738" xmlns="http://www.w3.org/2000/svg">
     <desc>Source: openclipart.org/detail/209545</desc>
     <ellipse cx="290.68" cy="349.31" fill="rgb(96, 169, 216)" id="svg_7" rx="123.94" ry="122.83" stroke="rgb(0, 0, 0)" stroke-opacity="0"/>
     <path d="m182.3,293.92c0,0 -133.39,-32.24 -133.39,-33.35c0,-1.11 83.37,84.48 83.37,84.48c0,0 -56.69,132.28 -55.58,132.28c1.11,0 93.37,-60.03 93.37,-60.03l23.34,83.37c0,0 46.69,-62.25 44.47,-62.25c-2.23,0 -57.81,-140.05 -55.58,-144.5z" fill="rgb(96, 169, 216)" id="svg_6" stroke="rgb(0, 0, 0)" stroke-opacity="0"/>
     <path d="m381.38,347l-6.19,52.49l84.13,-26.86l-77.94,-25.63z" fill="rgb(216, 146, 0)" id="svg_5" stroke="rgb(0, 0, 0)" stroke-opacity="0"/>
     <ellipse cx="350.26" cy="319.3" id="svg_4" rx="19.45" ry="12.74" stroke="rgb(0, 0, 0)" stroke-opacity="0"/>
    </symbol>
   </defs>
   <g class="layer">
    <title>Layer 1</title>
    <use id="svg_1" transform="matrix(0.988487 0 0 1.00763 -97.2198 -125.779)" x="97.58" xlink:href="#svg_2" y="129.04"/>
   </g>
  </symbol>
 </defs>
 <g class="layer">
  <title>Layer 1</title>
  <path d="m381.38,347l-6.19,52.49l84.13,-26.86l-77.94,-25.63z" fill="rgb(216, 146, 0)" id="svg_3" stroke="rgb(0, 0, 0)" stroke-opacity="0"/>
  <use id="svg_9" transform="rotate(-39.0877 69.2963 64.2999) matrix(1.00504 0 0 1.09895 0.085533 -15.3953)" x="4.97" xlink:href="#svg_8" y="5.4"/>
 </g>
</svg>